<svg xmlns="http://www.w3.org/2000/svg" xmlns:xlink="http://www.w3.org/1999/xlink" width="24" height="14"><defs><linearGradient id="f" x1="-8.4" y1="31.05" x2="-8.29" y2="31.05" gradientTransform="matrix(1670.51 0 0 -1670.51 14343.47 52031.31)" gradientUnits="userSpaceOnUse"><stop offset="0" stop-color="#f19843"></stop><stop offset="1" stop-color="#ea763d"></stop></linearGradient><linearGradient id="b" x1="-7.99" y1="35.82" x2="-7.88" y2="35.82" gradientTransform="matrix(0 -778.54 -778.54 0 28312.38 -6039.07)" gradientUnits="userSpaceOnUse"><stop offset="0" stop-color="#f6ae40"></stop><stop offset="1" stop-color="#fbc418"></stop></linearGradient><linearGradient id="j" x1="-7.31" y1="31.06" x2="-7.2" y2="31.06" gradientTransform="matrix(1669.21 0 0 -1669.21 12286.94 51989.64)" gradientUnits="userSpaceOnUse"><stop offset="0" stop-color="#4dab4d"></stop><stop offset="1" stop-color="#2a8937"></stop></linearGradient><linearGradient id="a" x1="-2.09" y1="47.61" x2="-1.97" y2="47.61" gradientTransform="matrix(0 229.9 -229.9 0 11418.77 624.48)" gradientUnits="userSpaceOnUse"><stop offset="0" stop-color="#ed8640"></stop><stop offset="1" stop-color="#e9753d"></stop></linearGradient><linearGradient id="n" x1="-2.08" y1="46.37" x2="-1.97" y2="46.37" gradientTransform="rotate(90 5506.195 6145.275) scale(241.39)" xlink:href="#a"></linearGradient><linearGradient id="p" x1="-2.09" y1="45.22" x2="-1.97" y2="45.22" gradientTransform="matrix(0 253.52 -253.52 0 11907.81 658.9)" xlink:href="#a"></linearGradient><linearGradient id="r" x1="-6.49" y1="28.26" x2="-6.38" y2="28.26" gradientTransform="matrix(0 497.55 497.55 0 -13905.28 3337.04)" gradientUnits="userSpaceOnUse"><stop offset="0" stop-color="#81bb58"></stop><stop offset="1" stop-color="#56ae53"></stop></linearGradient><linearGradient id="t" x1="-9.21" y1="34.21" x2="-9.09" y2="34.21" gradientTransform="matrix(0 -377.5 -377.5 0 13046.28 -3299.1)" gradientUnits="userSpaceOnUse"><stop offset="0" stop-color="#3ba743"></stop><stop offset="1" stop-color="#2a8937"></stop></linearGradient><linearGradient id="v" x1="-8.86" y1="33.56" x2="-8.74" y2="33.56" gradientTransform="matrix(1018.63 0 0 -1018.63 9336.2 34300.83)" gradientUnits="userSpaceOnUse"><stop offset="0" stop-color="#e75b81"></stop><stop offset="1" stop-color="#f2999f"></stop></linearGradient><linearGradient id="x" x1="-7.55" y1="30.93" x2="-7.44" y2="30.93" gradientTransform="matrix(1646.43 0 0 -1646.43 12567.13 51070)" xlink:href="#b"></linearGradient><linearGradient id="z" x1="-5.28" y1="29.98" x2="-5.17" y2="29.98" gradientTransform="matrix(0 1094.05 1094.05 0 -32586.91 5839.17)" gradientUnits="userSpaceOnUse"><stop offset="0" stop-color="#fdf187"></stop><stop offset="1" stop-color="#fccc6f"></stop></linearGradient><linearGradient id="c" x1="-5.29" y1="29.81" x2="-5.18" y2="29.81" gradientTransform="matrix(0 967.88 967.88 0 -28646.98 5207.31)" gradientUnits="userSpaceOnUse"><stop offset="0" stop-color="#f5aa3b"></stop><stop offset="1" stop-color="#fbc418"></stop></linearGradient><linearGradient id="D" x1="-3.5" y1="27.29" x2="-3.39" y2="27.29" gradientTransform="matrix(0 386.98 386.98 0 -10354.16 1472.81)" xlink:href="#c"></linearGradient><linearGradient id="F" x1="-4.76" y1="27.24" x2="-4.65" y2="27.24" gradientTransform="matrix(0 724.38 724.38 0 -19340.65 3535.46)" gradientUnits="userSpaceOnUse"><stop offset="0" stop-color="#de251e"></stop><stop offset="1" stop-color="#e45157"></stop></linearGradient><linearGradient id="H" x1="-7.29" y1="32.99" x2="-7.18" y2="32.99" gradientTransform="matrix(0 -1543.52 -1543.52 0 51218.4 -11034.77)" gradientUnits="userSpaceOnUse"><stop offset="0" stop-color="#313e89"></stop><stop offset="1" stop-color="#3e5598"></stop></linearGradient><linearGradient id="J" x1="-8.21" y1="34.15" x2="-8.09" y2="34.15" gradientTransform="matrix(0 -866.06 -866.06 0 29872.96 -6961.23)" gradientUnits="userSpaceOnUse"><stop offset="0" stop-color="#4486bf"></stop><stop offset="1" stop-color="#4362a2"></stop></linearGradient><linearGradient xlink:href="#b" id="h" gradientUnits="userSpaceOnUse" gradientTransform="matrix(0 -778.54 -778.54 0 28312.38 -6039.07)" x1="-7.99" y1="35.82" x2="-7.88" y2="35.82"></linearGradient><linearGradient xlink:href="#a" id="l" gradientUnits="userSpaceOnUse" gradientTransform="matrix(0 229.9 -229.9 0 11418.77 624.48)" x1="-2.09" y1="47.61" x2="-1.97" y2="47.61"></linearGradient><linearGradient xlink:href="#c" id="B" gradientUnits="userSpaceOnUse" gradientTransform="matrix(0 967.88 967.88 0 -28646.98 5207.31)" x1="-5.29" y1="29.81" x2="-5.18" y2="29.81"></linearGradient><clipPath id="d"><path d="M217.16 36.91a9.79 9.79 0 00-9.78 9.78V62l-71.21 19.1a9.56 9.56 0 00-6.74 11.68l4.13 15.41-49.14 28.37A9.41 9.41 0 0081 149.41L114.81 208h166.1l30.62 37L339 208h132.27l33.83-58.59a9.43 9.43 0 00-3.44-12.85l-49.14-28.37 4.13-15.41a9.55 9.55 0 00-6.75-11.68L378.7 62V46.69a9.79 9.79 0 00-9.78-9.78z" fill="none"></path></clipPath><clipPath id="e"><path d="M394.83 85.74l-79.58 137.85a6.2 6.2 0 002.26 8.45l2.54 1.46L339 208h128.55l35-60.55a5.8 5.8 0 00-2.12-7.9l-97.15-56.07a6.19 6.19 0 00-8.45 2.26" fill="none"></path></clipPath><clipPath id="g"><path d="M396.78 92.59L361.3 154a6.18 6.18 0 002.27 8.45L442.4 208h19.25l33.76-58.47a6.19 6.19 0 00-2.26-8.45l-87.92-50.76a6.18 6.18 0 00-8.45 2.27" fill="none"></path></clipPath><clipPath id="i"><path d="M183.14 83.28L86 139.35a6.2 6.2 0 00-2.26 8.45l34.79 60.2h143.3L191.05 85.4a5.81 5.81 0 00-7.91-2.12" fill="none"></path></clipPath><clipPath id="k"><path d="M455.55 166.1a1.06 1.06 0 00-1 1.35 1.53 1.53 0 00.86 1c22.6 9.6 24.37-17.64 35-21.31a1.05 1.05 0 000-2 11.35 11.35 0 00-3.61-.63c-11.38 0-12.65 21.21-31.22 21.63" fill="none"></path></clipPath><clipPath id="m"><path d="M440.05 159.83a1.11 1.11 0 00-1.05 1.42 1.6 1.6 0 00.9 1c23.73 10.08 25.59-18.52 36.72-22.38a1.11 1.11 0 000-2.11 11.91 11.91 0 00-3.79-.66c-11.95 0-13.28 22.27-32.78 22.71" fill="none"></path></clipPath><clipPath id="o"><path d="M424.93 153.72a1.17 1.17 0 00-1.1 1.49 1.7 1.7 0 00.94 1.07c24.92 10.58 26.87-19.45 38.56-23.5a1.17 1.17 0 000-2.22 12.84 12.84 0 00-4-.7c-12.58 0-13.85 23.4-34.39 23.86" fill="none"></path></clipPath><clipPath id="q"><path d="M180.84 90.32l-87.91 50.76a6.18 6.18 0 00-2.26 8.45L124.43 208h19.25l79.18-45.71a5.81 5.81 0 002.12-7.91L189.3 92.59a6.19 6.19 0 00-8.46-2.27" fill="none"></path></clipPath><clipPath id="s"><path d="M120.57 135.09c-4.28.09-14 1.84-14 1.84s1.46 10.26 3 14.36c2.51 6.67 6.65 13.49 12 18.28 4.82 4.29 12.1 7.59 18.74 6.76 3.8-.48 6.91-2.54 9.6-5.15-3.79-16.65-18.18-29.54-36.11-32h1.27c18.78 0 34.32 13.18 37 30.34.61-1.06 1.26-2.1 1.81-3.19v-.06a1.33 1.33 0 00.09-.35 20.08 20.08 0 001-11.76c-1.13-4.64-4.41-8.37-8-11.38a33.72 33.72 0 00-13.17-6.48 43 43 0 00-11.12-1.24h-2.17" fill="none"></path></clipPath><clipPath id="u"><path d="M319.75 62l-21.6 80.62a6.2 6.2 0 004.38 7.58l114.1 30.57a6.66 6.66 0 008.15-4.71l21.48-80.16a6.19 6.19 0 00-4.37-7.58l-114.56-30.7a5.86 5.86 0 00-1.6-.21 6.21 6.21 0 00-6 4.58" fill="none"></path></clipPath><clipPath id="w"><path d="M262.5 50.72L137 84.34a6.19 6.19 0 00-4.37 7.57L163.77 208h117.14l28.49 34.38 4.61-1.23a4.11 4.11 0 00.46-.15l4.11-5.52a6 6 0 00-.2-1.91L270.65 55.43a6.64 6.64 0 00-8.15-4.71" fill="none"></path></clipPath><clipPath id="y"><path d="M258.74 57.62L144.19 88.31a6.19 6.19 0 00-4.37 7.58l21.6 80.62a6.18 6.18 0 007.57 4.37l114.11-30.57a6.65 6.65 0 004.7-8.15L266.32 62a6.19 6.19 0 00-6-4.58 6 6 0 00-1.61.21" fill="none"></path></clipPath><clipPath id="A"><path d="M184.06 146a25.36 25.36 0 1124.58 19 25.64 25.64 0 01-24.58-19m10-61.25a.7.7 0 00-.51.75c3.21 29.18-.24 33.19-17.38 20.66a.42.42 0 00-.59.59c12.74 17.6 8.27 20.76-22.34 17.25a.42.42 0 00-.21.8c28.29 12.32 30.53 17.35 10.73 26.23a.42.42 0 00.21.8c22.22-2.34 22.14 3.55 2 30.43 27.81-21 33-20.32 29.91 4.79 9.36-22.44 14.28-21.48 26.68 7.1l1.15-.31c-3.42-30.87.36-34.17 19.58-19.57-15.17-20.18-11-23.38 23.53-19.19-32-13.69-34-18.61-10.82-28.49-25 3.1-25.72-2.15-4.79-30.12-27.82 21-33 20.33-29.91-4.78-9.33 22.17-14.22 21.48-26.44-6.54a.71.71 0 00-.64-.43.57.57 0 00-.18 0" fill="none"></path></clipPath><clipPath id="C"><path d="M206.51 117.49a22.08 22.08 0 00-9.35 40.74 8.53 8.53 0 00.16-2.4c-.2-4-.39-4-3.17-12-2.19-6.29 1-11.95 2.76-13.39a.4.4 0 01.65.38 29.81 29.81 0 00.16 10.21c1.19 5.19 4.76 7 7.94 12a20 20 0 012.82 8.1c2.88-.2 6.58-.55 6.58-.55a21.61 21.61 0 004.35-1.89 1.22 1.22 0 01.16-.54c3.86-7.26-5.3-13.24-1.43-20.5a12.7 12.7 0 011.23-1.81 6.33 6.33 0 00-.72 1.76c-1.5 5.61 5.2 10.41 7.09 15.68a22.08 22.08 0 00-17.08-35.9c-.71 0-1.42 0-2.15.11" fill="none"></path></clipPath><clipPath id="E"><path d="M403.81 87.39a14.58 14.58 0 01-.47 4.94c-5.68 18.1-29.84 15.39-35.8 39.49-2.47 10-.74 22.27 4.39 30.66a.94.94 0 001.7-.77c-1-3.4-3.33-8.14-1.18-16.2 2.35-8.85 6.17-12.83 9.95-14.69.77-.38 1.7-.09 1.58.75-.74 5.18-.46 9.36.77 12.21a.94.94 0 001.8-.2c.25-1.57.63-3.67 1.11-5.46a22.16 22.16 0 0111.81-14.71.94.94 0 011.27 1.24 9.55 9.55 0 00-.69 1.82c-2.18 8.15 8.84 18.59 5.43 31.34a19.53 19.53 0 01-5.57 8.84.94.94 0 001.08 1.52c8.64-4.72 18.07-11.95 20.72-21.88 2.15-8 .45-15.62-2.26-22.66a.94.94 0 00-1.75 0 12.57 12.57 0 01-7.08 7.51.94.94 0 01-1.22-1.23 94.61 94.61 0 003.6-10.43 35.26 35.26 0 00-7.59-32.76.94.94 0 00-1.64.67" fill="none"></path></clipPath><clipPath id="G"><path d="M217.16 40.51a6.21 6.21 0 00-6.16 6.18V208h69.94l30.59 37L339 208h36.1V48.24a7.75 7.75 0 00-7.73-7.73z" fill="none"></path></clipPath><clipPath id="I"><path d="M223.92 47.05a6.19 6.19 0 00-6.19 6.19v85.54a6.19 6.19 0 006.19 6.19h138.24a6.19 6.19 0 006.19-6.19V54.71a7.66 7.66 0 00-7.66-7.66z" fill="none"></path></clipPath></defs><g clip-path="url(#e)" transform="matrix(.05681 0 0 .08057 -4.648 -2.644)"><path fill="url(#f)" d="M313.55 82.65h190.56V233.5H313.55z"></path></g><g clip-path="url(#d)" transform="matrix(.05681 0 0 .08057 -4.648 -2.644)"><path stroke-miterlimit="10" d="M500.05 139.35l-97.11-56.07A5.81 5.81 0 00395 85.4l-80 138.53a5.81 5.81 0 002.12 7.91l97.45 56.26a5.81 5.81 0 007.91-2.11l79.83-138.19a6.21 6.21 0 00-2.26-8.45z" fill="none" stroke="#221f1f" stroke-width="2.23"></path></g><g clip-path="url(#g)" transform="matrix(.05681 0 0 .08057 -4.648 -2.644)"><path fill="url(#h)" d="M359.59 89.49h137.52V208H359.59z"></path></g><g clip-path="url(#i)" transform="matrix(.05681 0 0 .08057 -4.648 -2.644)"><path fill="url(#j)" d="M82.07 82.51h179.77v125.5H82.07z"></path></g><g clip-path="url(#d)" transform="matrix(.05681 0 0 .08057 -4.648 -2.644)"><path stroke-miterlimit="10" d="M183.14 83.28L86 139.35a6.2 6.2 0 00-2.26 8.45L163.55 286a5.81 5.81 0 007.91 2.11l97.45-56.26a5.81 5.81 0 002.12-7.91l-80-138.53a5.81 5.81 0 00-7.89-2.13z" fill="none" stroke="#221f1f" stroke-width="2.23"></path></g><g clip-path="url(#k)" transform="matrix(.05681 0 0 .08057 -4.648 -2.644)"><path fill="url(#l)" d="M454.36 144.46h37v33.56h-37z"></path></g><g clip-path="url(#m)" transform="matrix(.05681 0 0 .08057 -4.648 -2.644)"><path fill="url(#n)" d="M438.79 137.12h38.85v35.23h-38.85z"></path></g><g clip-path="url(#o)" transform="matrix(.05681 0 0 .08057 -4.648 -2.644)"><path fill="url(#p)" d="M423.61 129.86h40.8v37h-40.8z"></path></g><g clip-path="url(#q)" transform="matrix(.05681 0 0 .08057 -4.648 -2.644)"><path transform="rotate(-45 157.761 148.743)" fill="url(#r)" d="M67.21 58.19h181.11V239.3H67.21z"></path></g><g clip-path="url(#d)" transform="matrix(.05681 0 0 .08057 -4.648 -2.644)"><path d="M448.58 84.21L323.13 50.6a6.21 6.21 0 00-7.58 4.4L267.7 233.57a6.2 6.2 0 004.37 7.58L398 274.88a6.19 6.19 0 007.58-4.37l47.71-178.15a6.67 6.67 0 00-4.71-8.15" fill="#df2c2f"></path><path stroke-miterlimit="10" d="M449 84.34L323.58 50.72a6.67 6.67 0 00-8.15 4.71l-47.61 177.69a6.68 6.68 0 004.7 8.15l125 33.49a6.68 6.68 0 008.15-4.7l47.74-178.15a6.2 6.2 0 00-4.41-7.57z" fill="none" stroke="#221f1f" stroke-width="2.48"></path></g><g clip-path="url(#s)" transform="matrix(.05681 0 0 .08057 -4.648 -2.644)"><path fill="url(#t)" d="M106.61 135.06h49.31v42.1h-49.31z"></path></g><g clip-path="url(#u)" transform="matrix(.05681 0 0 .08057 -4.648 -2.644)"><path transform="rotate(-65 372.212 119.56)" fill="url(#v)" d="M284.21 25.37h176v188.37h-176z"></path></g><g clip-path="url(#w)" transform="matrix(.05681 0 0 .08057 -4.648 -2.644)"><path fill="url(#x)" d="M131.78 50.49h186.83v191.89H131.78z"></path></g><g clip-path="url(#d)" transform="matrix(.05681 0 0 .08057 -4.648 -2.644)"><path stroke-miterlimit="10" d="M262.5 50.72L137 84.34a6.19 6.19 0 00-4.37 7.57l47.77 178.15a6.67 6.67 0 008.15 4.7l125-33.49a6.67 6.67 0 004.71-8.15L270.65 55.43a6.67 6.67 0 00-8.15-4.71z" fill="none" stroke="#221f1f" stroke-width="2.48"></path></g><g clip-path="url(#y)" transform="matrix(.05681 0 0 .08057 -4.648 -2.644)"><path fill="url(#z)" d="M138.93 57.41h149.82v124.36H138.93z"></path></g><g clip-path="url(#A)" transform="matrix(.05681 0 0 .08057 -4.648 -2.644)"><path fill="url(#B)" d="M152.61 84.75h114.25v109.42H152.61z"></path></g><g clip-path="url(#C)" transform="matrix(.05681 0 0 .08057 -4.648 -2.644)"><path fill="url(#D)" d="M185.63 117.38h45.45v43.75h-45.45z"></path></g><g clip-path="url(#E)" transform="matrix(.05681 0 0 .08057 -4.648 -2.644)"><path fill="url(#F)" d="M365.07 86.4h58.79v82.3h-58.79z"></path></g><g clip-path="url(#G)" transform="matrix(.05681 0 0 .08057 -4.648 -2.644)"><path fill="url(#H)" d="M210.97 40.51H375.1v204.45H210.97z"></path></g><g clip-path="url(#d)" transform="matrix(.05681 0 0 .08057 -4.648 -2.644)"><rect stroke-miterlimit="10" ry="6.19" rx="6.19" height="226.86" width="164.13" y="40.51" x="210.97" fill="none" stroke="#221f1f" stroke-width="2.48"></rect></g><g clip-path="url(#I)" transform="matrix(.05681 0 0 .08057 -4.648 -2.644)"><path fill="url(#J)" d="M217.73 47.05h150.61v97.91H217.73z"></path></g><g clip-path="url(#d)" transform="matrix(.05681 0 0 .08057 -4.648 -2.644)"><path d="M254 102l45.64 32.34a1.11 1.11 0 001.53-1.57l-18.77-25.19a1.12 1.12 0 01.45-1.68l52.37-22.82a1.11 1.11 0 00.12-2l-34.71-20A1.12 1.12 0 01301 59l61.48-11.77a7.4 7.4 0 00-1.77-.22H225.39a7.5 7.5 0 00-2.52.44l60.27 30.78a1.11 1.11 0 01.13 1.91l-29.26 20a1.11 1.11 0 000 1.82" fill="#badbf3"></path></g></svg>