<svg xmlns="http://www.w3.org/2000/svg" width="24" height="16" viewBox="0 0 74.999 49.999"><path d="M8.197.565L6.713 9.138 3.367 28.175l-1.358 7.942H9.183l.378-1.89.814-4.665 2.63-15.003 1.127-6.808h2.778l-1.042 5.8-1.79 10.211-1.286 7.313-.807 5.042h7.198l.579-3.277.883-5.043 2.127-12.23 1.336-7.816h2.652l-.495 3.152-1.22 6.934-3.21 18.28h7.324l1.463-8.446 3.115-17.776 1.61-9.33zM37.999.565l-.705 4.16-1.41 8.07-4.073 23.322h9.976l-.505 3.278h-9.976l-1.111 5.547-.53 3.026h17.679l.705-4.538 1.284-7.69 3.977-23.702 1.242-7.312.62-4.16h-7.197l-3.21 17.523-1.715 9.582h-2.778l1.442-7.565 2.42-13.11.757-4.161.432-2.27zM57.825.565l-.874 5.421-1.895 11.22-3.893 23.072-1.294 7.69h7.324l.684-5.043.309-2.395c-.048-.88-1.41-2.58-.865-3.908.408-.994 2.546-1.745 3.535-2.238.462-.23 1.81-.677 2.051-1.001.173-.07.481-1.433 1.547-1.567 1.066-.135 3.47.56 4.989.772l1.462-8.32 2.589-14.75.95-5.422L75 .566H57.825zm5.935 7.186h2.778l-2.873 16.263-.568 3.278-.312 1.628-1.046.011h-1.641l1.083-6.177 1.495-8.573 1.084-6.43z" fill="#00cdd5"></path><path d="M61.613 45.447l2.002-3.404 2.4-4.16c.53-.927 1.175-2.439 2.291-2.702.553-.13 1.038.113 1.586.41.55.297.952.622 1.445.779.145-.77.476-1.695-.065-2.382-.425-.542-1.074-.619-1.703-.745l-3.536-.724c-.57-.095-1.214-.295-1.765 0-.92.44-.941 1.817-1.114 2.716l-1.425 7.438c-.144.847-.613 2.006-.116 2.774zM60.73 44.186l.684-3.152 1.336-6.808-3.662 1.667c-.564.271-1.103.448-1.307 1.108-.204.663.348 1.667.645 2.268z" fill="#ffb200"></path><path d="M69.445 35.996c-.371-.16-.754-.244-1.138-.175-.913.4-1.317 1.49-1.788 2.314l-3.337 5.799c-.387.673-1.218 1.885-1.171 2.647.05.819.41.67 1.307 1.228.896.56 2.605 1.262 3.661 1.978.693.352 1.439.322 1.786-.517 1.476-2.63 3.987-6.99 5.33-9.433.108-.643.026-.88-.417-1.323-1.68-.951-2.538-1.49-4.233-2.518zM2.224 46.077h.757l.469-2.659h1.894l-.798 4.55H0l1.668-9.455h4.546l-.732 4.16H3.588l.39-2.27H3.22zM7.288 38.513l-.343 1.891h2.652l-.126.757H6.82l-1.2 6.807h4.546l1.668-9.455H7.287zm1.086 4.538h.758l-.531 3.026h-.758zM12.907 38.513l-1.668 9.455h1.894l.709-3.656h.77l-.707 3.656h1.88l.658-3.782-.238-.756h.378l.87-4.917h-4.546zm1.552 1.891h.758l-.442 2.27h-.758zM21.382 37.378l-.204 1.135h-2.651l-1.669 9.455h4.546l1.872-10.59h-1.894zm-1.304 3.026h.758l-.996 5.673h-.758zM28.692 38.513l-.532 3.026h-1.894l.19-1.135h-.758l-.327 1.89h2.652l-1 5.674h-4.545l.531-3.026h1.895l-.202 1.135h.757l.329-1.891h-2.652l1.01-5.673z" fill="#ffb200"></path></svg>